HIERARCHY
ROOT hip
{
  OFFSET 0 0 0
  CHANNELS 6 Xposition Yposition Zposition Zrotation Yrotation Xrotation
  JOINT abdomen
  {
    OFFSET 0 20.6881 -0.73152
    CHANNELS 3 Zrotation Xrotation Yrotation
    JOINT chest
    {
      OFFSET 0 11.7043 -0.48768
      CHANNELS 3 Zrotation Xrotation Yrotation
      JOINT neck
      {
        OFFSET 0 22.1894 -2.19456
        CHANNELS 3 Zrotation Xrotation Yrotation
        JOINT head
        {
          OFFSET -0.24384 7.07133 1.2192
          CHANNELS 3 Zrotation Xrotation Yrotation
          JOINT leftEye
          {
            OFFSET 4.14528 8.04674 8.04672
            CHANNELS 3 Zrotation Xrotation Yrotation
            End Site
            {
              OFFSET 1 0 0
            }
          }
          JOINT rightEye
          {
            OFFSET -3.6576 8.04674 8.04672
            CHANNELS 3 Zrotation Xrotation Yrotation
            End Site
            {
              OFFSET 1 0 0
            }
          }
        }
      }
      JOINT rCollar
      {
        OFFSET -2.68224 19.2634 -4.8768
        CHANNELS 3 Zrotation Xrotation Yrotation
        JOINT rShldr
        {
          OFFSET -8.77824 -1.95073 1.46304
          CHANNELS 3 Zrotation Xrotation Yrotation
          JOINT rForeArm
          {
            OFFSET -28.1742 -1.7115 0.48768
            CHANNELS 3 Zrotation Xrotation Yrotation
            JOINT rHand
            {
              OFFSET -22.5879 0.773209 7.07136
              CHANNELS 3 Zrotation Xrotation Yrotation
              JOINT rThumb1
              {
                OFFSET -1.2192 -0.487915 3.41376
                CHANNELS 3 Zrotation Xrotation Yrotation
                JOINT rThumb2
                {
                  OFFSET -3.37035 -0.52449 3.41376
                  CHANNELS 3 Zrotation Xrotation Yrotation
                  End Site
                  {
                    OFFSET -1.78271 -1.18214 1.43049
                  }
                }
              }
              JOINT rIndex1
              {
                OFFSET -7.75947 0.938293 5.60832
                CHANNELS 3 Zrotation Xrotation Yrotation
                JOINT rIndex2
                {
                  OFFSET -2.54057 -0.884171 1.56538
                  CHANNELS 3 Zrotation Xrotation Yrotation
                  End Site
                  {
                    OFFSET -1.62519 -0.234802 1.16502
                  }
                }
              }
              JOINT rMid1
              {
                OFFSET -8.24714 1.18213 3.41376
                CHANNELS 3 Zrotation Xrotation Yrotation
                JOINT rMid2
                {
                  OFFSET -3.10165 -0.590103 1.0647
                  CHANNELS 3 Zrotation Xrotation Yrotation
                  End Site
                  {
                    OFFSET -2.48547 -0.328903 0.83742
                  }
                }
              }
              JOINT rRing1
              {
                OFFSET -8.82822 0.546677 1.51678
                CHANNELS 3 Zrotation Xrotation Yrotation
                JOINT rRing2
                {
                  OFFSET -2.60934 -0.819778 -0.0198488
                  CHANNELS 3 Zrotation Xrotation Yrotation
                  End Site
                  {
                    OFFSET -2.33842 -0.294052 0.168128
                  }
                }
              }
              JOINT rPinky1
              {
                OFFSET -8.27202 -0.0477905 -0.4584
                CHANNELS 3 Zrotation Xrotation Yrotation
                JOINT rPinky2
                {
                  OFFSET -1.82734 -0.647385 -0.700984
                  CHANNELS 3 Zrotation Xrotation Yrotation
                  End Site
                  {
                    OFFSET -1.69225 -0.51767 -0.607171
                  }
                }
              }
            }
          }
        }
      }
      JOINT lCollar
      {
        OFFSET 2.68224 19.2634 -4.8768
        CHANNELS 3 Zrotation Xrotation Yrotation
        JOINT lShldr
        {
          OFFSET 8.77824 -1.95073 1.46304
          CHANNELS 3 Zrotation Xrotation Yrotation
          JOINT lForeArm
          {
            OFFSET 28.1742 -1.7115 0.48768
            CHANNELS 3 Zrotation Xrotation Yrotation
            JOINT lHand
            {
              OFFSET 22.5879 0.773209 7.07136
              CHANNELS 3 Zrotation Xrotation Yrotation
              JOINT lThumb1
              {
                OFFSET 1.2192 -0.487915 3.41376
                CHANNELS 3 Zrotation Xrotation Yrotation
                JOINT lThumb2
                {
                  OFFSET 3.37035 -0.52449 3.41376
                  CHANNELS 3 Zrotation Xrotation Yrotation
                  End Site
                  {
                    OFFSET 1.78271 -1.18214 1.43049
                  }
                }
              }
              JOINT lIndex1
              {
                OFFSET 7.75947 0.938293 5.60832
                CHANNELS 3 Zrotation Xrotation Yrotation
                JOINT lIndex2
                {
                  OFFSET 2.54057 -0.884171 1.56538
                  CHANNELS 3 Zrotation Xrotation Yrotation
                  End Site
                  {
                    OFFSET 1.62519 -0.234802 1.16502
                  }
                }
              }
              JOINT lMid1
              {
                OFFSET 8.24714 1.18213 3.41376
                CHANNELS 3 Zrotation Xrotation Yrotation
                JOINT lMid2
                {
                  OFFSET 3.10165 -0.590103 1.0647
                  CHANNELS 3 Zrotation Xrotation Yrotation
                  End Site
                  {
                    OFFSET 2.48547 -0.328903 0.83742
                  }
                }
              }
              JOINT lRing1
              {
                OFFSET 8.82822 0.546677 1.51678
                CHANNELS 3 Zrotation Xrotation Yrotation
                JOINT lRing2
                {
                  OFFSET 2.60934 -0.819778 -0.0198488
                  CHANNELS 3 Zrotation Xrotation Yrotation
                  End Site
                  {
                    OFFSET 2.33842 -0.294052 0.168128
                  }
                }
              }
              JOINT lPinky1
              {
                OFFSET 8.27202 -0.0477905 -0.4584
                CHANNELS 3 Zrotation Xrotation Yrotation
                JOINT lPinky2
                {
                  OFFSET 1.82734 -0.647385 -0.700984
                  CHANNELS 3 Zrotation Xrotation Yrotation
                  End Site
                  {
                    OFFSET 1.69225 -0.51767 -0.607171
                  }
                }
              }
            }
          }
        }
      }
    }
  }
  JOINT rButtock
  {
    OFFSET -8.77824 4.35084 1.2192
    CHANNELS 3 Zrotation Xrotation Yrotation
    JOINT rThigh
    {
      OFFSET 0 -1.70687 -2.19456
      CHANNELS 3 Zrotation Xrotation Yrotation
      JOINT rShin
      {
        OFFSET 0 -36.8199 0.73152
        CHANNELS 3 Zrotation Xrotation Yrotation
        JOINT rFoot
        {
          OFFSET 0.73152 -45.1104 -5.12064
          CHANNELS 3 Zrotation Xrotation Yrotation
          End Site
          {
            OFFSET -1.1221 -3.69964 12.103
          }
        }
      }
    }
  }
  JOINT lButtock
  {
    OFFSET 8.77824 4.35084 1.2192
    CHANNELS 3 Zrotation Xrotation Yrotation
    JOINT lThigh
    {
      OFFSET 0 -1.70687 -2.19456
      CHANNELS 3 Zrotation Xrotation Yrotation
      JOINT lShin
      {
        OFFSET 0 -36.8199 0.73152
        CHANNELS 3 Zrotation Xrotation Yrotation
        JOINT lFoot
        {
          OFFSET -0.73152 -45.1104 -5.12064
          CHANNELS 3 Zrotation Xrotation Yrotation
          End Site
          {
            OFFSET 1.1221 -3.69964 12.103
          }
        }
      }
    }
  }
}
MOTION
Frames:	8
Frame Time:	0.00833333
57.383 105.62 -27.4419 -0.9011 -2.7128 8.0487 2.73586 4.38992 4.11777 -1.26195 -8.47213 1.17439 -3.25316 7.83252 -1.69622 2.47271 -0.133726 -2.81197 -0.0 0.0 0.0 -0.0 0.0 0.0 -5.8779e-15 4.87762e-14 -2.03754e-15 26.1128 2.68493 25.3899 -23.6217 -18.4076 48.429 -0.0122051 -3.20378 -0.450713 -8.73434e-10 1.5759e-09 1.27128e-10 -1.51143e-09 2.71969e-09 2.17893e-10 -8.73429e-10 1.57589e-09 1.27113e-10 7.73091 5.47488 0.417314 -8.73436e-10 1.57589e-09 1.27117e-10 2.90554 0.965183 0.102902 -8.7343e-10 1.57589e-09 1.27121e-10 10.2786 0.731801 0.0259123 -8.73438e-10 1.5759e-09 1.27127e-10 2.22167 -0.733487 -0.20892 -5.92534e-15 4.87772e-14 -2.33572e-15 -38.9921 16.4714 -20.81 15.6595 -8.37469 -28.9568 0.203467 12.7959 -1.82875 6.68581e-10 2.6768e-09 5.23471e-10 1.1615e-09 4.64049e-09 9.00549e-10 6.68576e-10 2.67681e-09 5.23495e-10 -7.73091 5.47488 -0.417314 6.68582e-10 2.6768e-09 5.23472e-10 -2.90554 0.965183 -0.102902 6.68569e-10 2.6768e-09 5.2347e-10 -10.2786 0.731801 -0.0259123 6.68579e-10 2.6768e-09 5.23461e-10 -2.22167 -0.733487 0.20892 -2.03217e-16 0.0 -3.88251e-19 7.36207 -17.8062 9.50469 -0.0433168 24.5823 -0.039555 12.4497 28.8549 -27.2769 2.03217e-16 0.0 3.88251e-19 -2.1317 -13.5596 -12.1197 0.204713 17.8181 0.27925 -8.60214 24.5852 25.532
57.4139 106.413 -27.0017 -0.8348 -2.6012 7.992 2.58959 5.23905 4.0276 -1.2865 -8.61813 1.13892 -3.19224 7.62537 -1.67754 2.70286 -0.119977 -2.77453 -0.0 0.0 0.0 -0.0 0.0 0.0 -5.91778e-15 -7.42123e-14 2.52092e-14 26.9929 3.82529 24.2197 -23.7209 -18.5855 48.7344 -0.00985935 -2.86977 -0.403647 8.01376e-11 -1.51011e-09 -2.38416e-10 1.37951e-10 -2.61838e-09 -4.14798e-10 8.01446e-11 -1.51012e-09 -2.38424e-10 7.73091 5.47488 0.417314 8.0135e-11 -1.51011e-09 -2.38421e-10 2.90554 0.965183 0.102902 8.01431e-11 -1.51011e-09 -2.38419e-10 10.2786 0.731801 0.0259123 8.01321e-11 -1.51011e-09 -2.38413e-10 2.22167 -0.733487 -0.20892 -5.97864e-15 -7.42117e-14 2.48473e-14 -40.1298 17.1321 -19.9356 15.6976 -8.4093 -29.0366 0.230642 13.5865 -1.94614 -1.92906e-10 -3.94291e-10 2.23523e-10 -3.29343e-10 -6.67641e-10 3.92729e-10 -1.92913e-10 -3.94289e-10 2.23545e-10 -7.73091 5.47488 -0.417314 -1.92906e-10 -3.94293e-10 2.23525e-10 -2.90554 0.965183 -0.102902 -1.92918e-10 -3.94294e-10 2.23518e-10 -10.2786 0.731801 -0.0259123 -1.92906e-10 -3.94294e-10 2.23506e-10 -2.22167 -0.733487 0.20892 -2.03217e-16 0.0 -3.88251e-19 7.53073 -18.3067 9.87807 -0.0296361 23.6881 -0.0330586 12.4714 28.3321 -27.6264 2.03217e-16 0.0 3.88251e-19 -2.17863 -14.1551 -12.8737 0.203581 17.4246 0.283605 -8.41654 23.8826 25.8881
57.4661 107.122 -26.5276 -0.7223 -2.4375 7.8589 2.47666 6.07846 3.93624 -1.27826 -8.7604 1.10522 -3.14634 7.40617 -1.67488 2.88224 -0.123815 -2.76482 -0.0 0.0 0.0 -0.0 0.0 0.0 -6.9633e-15 -1.65389e-13 4.23411e-14 27.818 5.03633 23.1021 -23.7828 -18.6968 48.9294 -0.0086925 -2.66103 -0.374255 9.43003e-10 -5.08606e-09 -5.78104e-10 1.6308e-09 -8.80476e-09 -1.00228e-09 9.43011e-10 -5.08607e-09 -5.78107e-10 7.73091 5.47488 0.417314 9.43e-10 -5.08607e-09 -5.78104e-10 2.90554 0.965183 0.102902 9.43009e-10 -5.08607e-09 -5.78105e-10 10.2786 0.731801 0.0259123 9.42996e-10 -5.08606e-09 -5.78098e-10 2.22167 -0.733487 -0.20892 -7.05148e-15 -1.65389e-13 4.19436e-14 -41.2469 17.8441 -19.1479 15.7204 -8.43004 -29.0846 0.249533 14.0812 -2.02023 -8.61913e-10 -2.73638e-09 -9.74395e-11 -1.48848e-09 -4.7174e-09 -1.54029e-10 -8.6192e-10 -2.73638e-09 -9.74172e-11 -7.73091 5.47488 -0.417314 -8.61913e-10 -2.73638e-09 -9.74363e-11 -2.90554 0.965183 -0.102902 -8.61924e-10 -2.73638e-09 -9.74458e-11 -10.2786 0.731801 -0.0259123 -8.61912e-10 -2.73638e-09 -9.74586e-11 -2.22167 -0.733487 0.20892 -2.03217e-16 0.0 -3.88251e-19 7.74278 -18.7996 10.4363 -0.0205378 22.8117 -0.0207787 12.5936 27.4559 -28.4711 2.03217e-16 0.0 3.88251e-19 -2.17796 -14.7747 -13.6114 0.202536 17.0652 0.28551 -8.20449 22.9065 26.5849
57.4727 107.746 -26.1103 -0.7629 -2.2498 7.7496 2.40477 6.92332 3.83144 -1.22228 -8.89819 1.07082 -3.10653 7.14943 -1.69328 2.96605 -0.143506 -2.79333 -0.0 0.0 0.0 -0.0 0.0 0.0 -7.33514e-15 -2.17834e-13 4.61627e-14 28.5421 6.33735 22.0498 -23.8028 -18.7326 48.996 -0.00905065 -2.68623 -0.377813 1.82809e-09 -1.0348e-08 -9.44079e-10 3.16285e-09 -1.79095e-08 -1.6344e-09 1.82809e-09 -1.0348e-08 -9.4408e-10 7.73091 5.47488 0.417314 1.82808e-09 -1.0348e-08 -9.44077e-10 2.90554 0.965183 0.102902 1.82809e-09 -1.0348e-08 -9.44078e-10 10.2786 0.731801 0.0259123 1.82808e-09 -1.0348e-08 -9.44069e-10 2.22167 -0.733487 -0.20892 -7.48024e-15 -2.17834e-13 4.5769e-14 -42.3355 18.5981 -18.5057 15.7267 -8.43563 -29.0978 0.251074 14.1048 -2.02392 -1.34021e-09 -4.29e-09 -5.31159e-10 -2.32045e-09 -7.40743e-09 -8.98438e-10 -1.34022e-09 -4.29e-09 -5.31133e-10 -7.73091 5.47488 -0.417314 -1.34021e-09 -4.29e-09 -5.31154e-10 -2.90554 0.965183 -0.102902 -1.34022e-09 -4.29e-09 -5.31163e-10 -10.2786 0.731801 -0.0259123 -1.34021e-09 -4.29e-09 -5.31174e-10 -2.22167 -0.733487 0.20892 -2.03217e-16 0.0 -3.88251e-19 8.03134 -19.2879 11.2773 -0.0170433 21.9631 -0.00233617 12.8674 26.1373 -30.0759 2.03217e-16 0.0 3.88251e-19 -2.10912 -15.4295 -14.3089 0.202202 16.736 0.292187 -8.03877 21.725 27.8238
57.4586 108.314 -25.7384 -0.8815 -2.0344 7.6773 2.36776 7.81102 3.71212 -1.13149 -9.0447 1.03472 -3.07612 6.86994 -1.72539 2.99453 -0.212317 -2.84591 -0.0 0.0 0.0 -0.0 0.0 0.0 -6.30223e-15 -2.57551e-13 4.32947e-14 29.2042 7.73491 21.0364 -23.7934 -18.7152 48.9687 -0.0103877 -2.85605 -0.401744 2.82489e-09 -1.70302e-08 -1.35108e-09 4.88858e-09 -2.9472e-08 -2.33691e-09 2.8249e-09 -1.70302e-08 -1.35108e-09 7.73091 5.47488 0.417314 2.82489e-09 -1.70302e-08 -1.35108e-09 2.90554 0.965183 0.102902 2.8249e-09 -1.70302e-08 -1.35108e-09 10.2786 0.731801 0.0259123 2.82489e-09 -1.70302e-08 -1.35107e-09 2.22167 -0.733487 -0.20892 -6.52602e-15 -2.57551e-13 4.29282e-14 -43.4047 19.4067 -17.972 15.7249 -8.43396 -29.0943 0.23987 13.7982 -1.97811 -1.79189e-09 -5.67155e-09 -1.07882e-09 -3.10839e-09 -9.8025e-09 -1.84057e-09 -1.79189e-09 -5.67155e-09 -1.07879e-09 -7.73091 5.47488 -0.417314 -1.79189e-09 -5.67155e-09 -1.07882e-09 -2.90554 0.965183 -0.102902 -1.7919e-09 -5.67155e-09 -1.07882e-09 -10.2786 0.731801 -0.0259123 -1.79189e-09 -5.67155e-09 -1.07883e-09 -2.22167 -0.733487 0.20892 -2.03217e-16 0.0 -3.88251e-19 8.3975 -19.7361 12.3626 -0.0165181 21.0946 0.020952 13.1685 24.4565 -32.2402 2.03217e-16 0.0 3.88251e-19 -1.9983 -16.0886 -15.0415 0.202421 16.4191 0.301674 -7.85058 20.4017 29.4108
57.4395 108.83 -25.3109 -0.9925 -1.8953 7.5722 2.35334 8.67937 3.60633 -1.02974 -9.19177 1.00322 -3.07345 6.61399 -1.7653 3.03811 -0.30919 -2.90957 -0.0 0.0 0.0 -0.0 0.0 0.0 -8.19136e-15 -2.80608e-13 3.59618e-14 29.8816 9.1769 20.0532 -23.7588 -18.6526 48.8602 -0.0114115 -2.99298 -0.42104 3.61222e-09 -2.26407e-08 -1.67074e-09 6.25176e-09 -3.91801e-08 -2.88837e-09 3.61222e-09 -2.26407e-08 -1.67074e-09 7.73091 5.47488 0.417314 3.61221e-09 -2.26407e-08 -1.67074e-09 2.90554 0.965183 0.102902 3.61222e-09 -2.26407e-08 -1.67074e-09 10.2786 0.731801 0.0259123 3.61221e-09 -2.26407e-08 -1.67072e-09 2.22167 -0.733487 -0.20892 -8.48614e-15 -2.80607e-13 3.56318e-14 -44.4614 20.283 -17.4457 15.712 -8.42213 -29.0671 0.227438 13.4507 -1.92631 -2.08989e-09 -6.55251e-09 -1.53312e-09 -3.62974e-09 -1.13321e-08 -2.62326e-09 -2.08989e-09 -6.55252e-09 -1.53309e-09 -7.73091 5.47488 -0.417314 -2.08989e-09 -6.55252e-09 -1.53311e-09 -2.90554 0.965183 -0.102902 -2.0899e-09 -6.55252e-09 -1.53312e-09 -10.2786 0.731801 -0.0259123 -2.08989e-09 -6.55251e-09 -1.53312e-09 -2.22167 -0.733487 0.20892 -2.03217e-16 0.0 -3.88251e-19 8.78439 -20.1519 13.5062 -0.0175795 20.2193 0.0488566 13.2945 22.5799 -34.4713 2.03217e-16 0.0 3.88251e-19 -1.87521 -16.749 -15.8097 0.201711 16.137 0.299244 -7.41011 18.7664 31.0225
57.4295 109.253 -24.8352 -1.0648 -1.8053 7.4756 2.34708 9.46608 3.54218 -0.940807 -9.33121 0.982626 -3.11663 6.42783 -1.80706 3.16733 -0.413073 -2.97131 -0.0 0.0 0.0 -0.0 0.0 0.0 -1.73293e-14 -2.83071e-13 2.63887e-14 30.6489 10.61 19.09 -23.703 -18.5526 48.6834 -0.010465 -2.91948 -0.410666 3.86885e-09 -2.4688e-08 -1.77467e-09 6.69615e-09 -4.27218e-08 -3.06733e-09 3.86886e-09 -2.4688e-08 -1.77467e-09 7.73091 5.47488 0.417314 3.86885e-09 -2.4688e-08 -1.77466e-09 2.90554 0.965183 0.102902 3.86885e-09 -2.4688e-08 -1.77467e-09 10.2786 0.731801 0.0259123 3.86884e-09 -2.4688e-08 -1.77465e-09 2.22167 -0.733487 -0.20892 -1.7658e-14 -2.8307e-13 2.60905e-14 -45.5192 21.2402 -16.8234 15.6844 -8.39723 -29.0091 0.223744 13.3513 -1.91148 -2.10716e-09 -6.6044e-09 -1.68674e-09 -3.66195e-09 -1.14255e-08 -2.88935e-09 -2.10716e-09 -6.6044e-09 -1.6867e-09 -7.73091 5.47488 -0.417314 -2.10716e-09 -6.6044e-09 -1.68673e-09 -2.90554 0.965183 -0.102902 -2.10716e-09 -6.6044e-09 -1.68673e-09 -10.2786 0.731801 -0.0259123 -2.10715e-09 -6.6044e-09 -1.68673e-09 -2.22167 -0.733487 0.20892 -2.03217e-16 0.0 -3.88251e-19 9.12897 -20.5485 14.5201 -0.0188808 19.3502 0.0811678 13.1143 20.6796 -36.308 2.03217e-16 0.0 3.88251e-19 -1.76946 -17.4074 -16.6137 0.198325 15.9122 0.270242 -6.49769 16.6633 32.358
57.4343 109.59 -24.3709 -1.1076 -1.6532 7.3901 2.35292 10.1912 3.54805 -0.870867 -9.47873 0.980759 -3.24129 6.33602 -1.85577 3.43875 -0.532922 -3.03539 -0.0 0.0 0.0 -0.0 0.0 0.0 -4.13051e-14 -2.57428e-13 1.18619e-14 31.5349 11.9933 18.1566 -23.6121 -18.3909 48.3978 -0.00713256 -2.53218 -0.356079 3.32759e-09 -2.12935e-08 -1.55632e-09 5.75908e-09 -3.68459e-08 -2.68987e-09 3.3276e-09 -2.12935e-08 -1.55633e-09 7.73091 5.47488 0.417314 3.32759e-09 -2.12935e-08 -1.55632e-09 2.90554 0.965183 0.102902 3.32759e-09 -2.12935e-08 -1.55632e-09 10.2786 0.731801 0.0259123 3.32758e-09 -2.12935e-08 -1.55631e-09 2.22167 -0.733487 -0.20892 -4.16087e-14 -2.57427e-13 1.15885e-14 -46.593 22.2904 -16.0765 15.6256 -8.34412 -28.8853 0.233953 13.6634 -1.95773 -1.67429e-09 -5.32972e-09 -1.37938e-09 -2.91021e-09 -9.22169e-09 -2.36376e-09 -1.6743e-09 -5.32973e-09 -1.37935e-09 -7.73091 5.47488 -0.417314 -1.67429e-09 -5.32973e-09 -1.37937e-09 -2.90554 0.965183 -0.102902 -1.6743e-09 -5.32973e-09 -1.37937e-09 -10.2786 0.731801 -0.0259123 -1.67429e-09 -5.32973e-09 -1.37938e-09 -2.22167 -0.733487 0.20892 -2.03217e-16 0.0 -3.88251e-19 9.42342 -20.9118 15.4222 -0.0211441 18.453 0.121744 12.7149 18.828 -37.7634 2.03217e-16 0.0 3.88251e-19 -1.68272 -18.0532 -17.4526 0.190303 15.7604 0.199595 -4.85969 13.7477 33.4429
